<svg xmlns="http://www.w3.org/2000/svg" viewBox="0 0 32 32" fill="none">
  <defs>
    <linearGradient id="bg" x1="0%" y1="0%" x2="100%" y2="100%">
      <stop offset="0%" style="stop-color:#6366F1"/>
      <stop offset="50%" style="stop-color:#7C3AED"/>
      <stop offset="100%" style="stop-color:#3B82F6"/>
    </linearGradient>
  </defs>
  <rect width="32" height="32" rx="7" fill="url(#bg)"/>
  <!-- Stylized P letterform -->
  <path d="M10 24V8h6.5c1.8 0 3.2.5 4.2 1.5s1.5 2.3 1.5 3.8c0 1.6-.5 2.9-1.5 3.9s-2.4 1.5-4.2 1.5H14v5.3H10z" fill="white"/>
  <path d="M14 11.2v4.3h2.3c.8 0 1.4-.2 1.8-.7.4-.4.7-1 .7-1.5s-.3-1.1-.7-1.5c-.4-.4-1-.6-1.8-.6H14z" fill="url(#bg)"/>
  <!-- Accent bar -->
  <rect x="10" y="25.5" width="12" height="1.5" rx=".75" fill="#38BDF8" opacity=".8"/>
</svg>
