<svg xmlns="http://www.w3.org/2000/svg" viewBox="0 0 120 120" fill="none">
  <defs>
    <linearGradient id="logoGradient" x1="0%" y1="0%" x2="100%" y2="100%">
      <stop offset="0%" style="stop-color:#6366F1"/>
      <stop offset="50%" style="stop-color:#7C3AED"/>
      <stop offset="100%" style="stop-color:#3B82F6"/>
    </linearGradient>
  </defs>
  <!-- Background rounded square -->
  <rect x="4" y="4" width="112" height="112" rx="24" fill="url(#logoGradient)"/>
  <!-- Subtle inner glow -->
  <rect x="4" y="4" width="112" height="112" rx="24" fill="white" fill-opacity="0.06"/>
  <!-- Stylized P letterform -->
  <path d="M36 92V28h24c6.6 0 12 1.8 15.6 5.4C79.2 37 81 41.6 81 47.2c0 5.8-1.8 10.5-5.4 14.2-3.6 3.6-9 5.4-15.6 5.4H50v25.2H36z" fill="white"/>
  <path d="M50 40v15.6h8.4c3 0 5.2-.8 6.6-2.4 1.4-1.6 2.2-3.6 2.2-5.4 0-1.8-.8-3.8-2.2-5.4-1.4-1.6-3.6-2.4-6.6-2.4H50z" fill="url(#logoGradient)"/>
  <!-- Accent bar -->
  <rect x="36" y="96" width="45" height="5" rx="2.5" fill="#38BDF8" opacity=".7"/>
</svg>
